<?xml version="1.0" standalone="no"?>
<!DOCTYPE svg PUBLIC "-//W3C//DTD SVG 20010904//EN"
 "http://www.w3.org/TR/2001/REC-SVG-20010904/DTD/svg10.dtd">
<svg version="1.0" xmlns="http://www.w3.org/2000/svg"
 width="512.000000pt" height="408.000000pt" viewBox="0 0 512.000000 408.000000"
 preserveAspectRatio="xMidYMid meet">

<g transform="translate(0.000000,408.000000) scale(0.100000,-0.100000)"
fill="#000000" stroke="none">
<path d="M0 2370 l0 -1700 890 0 890 0 -2 -168 -3 -167 -272 -3 -273 -2 0
-160 0 -160 1325 0 1325 0 0 160 0 160 -255 0 -255 0 0 170 0 170 875 0 875 0
0 1700 0 1700 -2560 0 -2560 0 0 -1700z m4970 145 l0 -1405 -2410 0 -2410 0 0
1405 0 1405 2410 0 2410 0 0 -1405z"/>
<path d="M2003 3623 c-21 -8 -15 -37 17 -73 16 -19 29 -38 30 -41 0 -3 -61
-45 -135 -93 l-134 -87 -50 18 c-44 15 -56 16 -98 5 -45 -13 -49 -12 -88 16
-22 15 -59 42 -82 58 -28 19 -42 37 -43 52 0 30 -22 71 -54 101 -19 18 -41 26
-80 29 -69 6 -115 -20 -145 -80 -18 -37 -35 -49 -173 -123 -114 -62 -157 -81
-170 -74 -9 5 -38 9 -65 9 -89 0 -145 -57 -145 -148 0 -101 108 -169 205 -128
45 19 68 48 82 103 l12 48 138 74 137 73 38 -21 c42 -23 96 -27 134 -10 23 11
33 6 108 -47 75 -54 83 -64 91 -102 10 -51 54 -97 105 -111 74 -21 165 30 179
100 5 28 24 44 151 126 80 52 151 97 157 100 7 2 29 -19 50 -46 38 -53 67 -65
83 -33 14 26 56 268 49 284 -4 11 -31 17 -104 21 -111 8 -182 8 -200 0z"/>
<path d="M3867 3574 c-8 -14 24 -658 34 -668 10 -11 640 32 653 45 13 12 -11
142 -38 211 -98 242 -310 402 -552 415 -50 3 -94 2 -97 -3z m233 -70 c192 -60
346 -230 396 -437 10 -37 14 -70 10 -74 -9 -9 -555 -48 -562 -40 -6 6 -32 442
-34 550 l0 37 58 -6 c31 -4 91 -17 132 -30z"/>
<path d="M3630 3437 c-99 -35 -157 -73 -241 -156 -59 -59 -85 -95 -117 -161
-96 -197 -94 -401 6 -595 46 -90 172 -218 259 -263 126 -66 288 -88 419 -57
71 16 174 60 174 73 0 5 -69 132 -154 283 l-153 274 -44 313 c-50 356 -35 329
-149 289z"/>
<path d="M1107 3123 c-10 -9 -8 -796 1 -811 6 -9 38 -12 123 -10 l114 3 3 413
2 412 -118 0 c-65 0 -122 -3 -125 -7z"/>
<path d="M2097 3123 c-10 -9 -8 -796 1 -811 6 -9 38 -12 123 -10 l114 3 3 413
2 412 -118 0 c-65 0 -122 -3 -125 -7z"/>
<path d="M1602 2583 l3 -278 117 -3 c115 -3 118 -2 123 20 3 13 4 138 3 278
l-3 255 -123 3 -122 3 2 -278z"/>
<path d="M615 2807 c-3 -7 -4 -123 -3 -257 l3 -245 114 -3 c85 -2 117 1 123
10 9 15 11 468 2 492 -5 13 -25 16 -120 16 -83 0 -116 -3 -119 -13z"/>
<path d="M3960 2795 c0 -12 314 -485 321 -485 6 0 40 31 78 68 99 100 171 258
171 379 l0 43 -285 0 c-157 0 -285 -2 -285 -5z"/>
<path d="M610 1885 l0 -75 1095 0 1095 0 0 75 0 75 -1095 0 -1095 0 0 -75z"/>
<path d="M610 1485 l0 -75 1715 0 1715 0 0 75 0 75 -1715 0 -1715 0 0 -75z"/>
</g>
</svg>
